<?xml version="1.0" encoding="us-ascii" standalone="no"?><svg xmlns="http://www.w3.org/2000/svg" xmlns:xlink="http://www.w3.org/1999/xlink" contentStyleType="text/css" height="716px" preserveAspectRatio="none" style="width:2680px;height:716px;background:#FFFFFF;" version="1.1" viewBox="0 0 2680 716" width="2680px" zoomAndPan="magnify"><defs/><g><line style="stroke:#181818;stroke-width:1.5;" x1="58.5" x2="58.5" y1="63.9688" y2="83.9688"/><rect fill="#FFA500" height="33.9688" style="stroke:#181818;stroke-width:1.5;" width="97" x="10" y="83.9688"/><text fill="#000000" font-family="sans-serif" font-size="12" lengthAdjust="spacing" textLength="77" x="20" y="105.1074">1.0 - Gesti&#243;n</text><line style="stroke:#181818;stroke-width:1.5;" x1="58.5" x2="68.5" y1="149.9219" y2="149.9219"/><rect fill="#D8BFD8" height="33.9688" style="stroke:#181818;stroke-width:1.5;" width="109" x="68.5" y="132.9375"/><text fill="#000000" font-family="sans-serif" font-size="12" lengthAdjust="spacing" textLength="89" x="78.5" y="154.0762">1.0.4 - Sprint 4</text><line style="stroke:#181818;stroke-width:1.5;" x1="123" x2="133" y1="198.8906" y2="198.8906"/><rect fill="#32CD32" height="33.9688" style="stroke:#181818;stroke-width:1.5;" width="120" x="133" y="181.9063"/><text fill="#000000" font-family="sans-serif" font-size="12" lengthAdjust="spacing" textLength="100" x="143" y="203.0449">1.0.4.1 - Riesgos</text><line style="stroke:#181818;stroke-width:1.5;" x1="123" x2="133" y1="247.8594" y2="247.8594"/><rect fill="#32CD32" height="33.9688" style="stroke:#181818;stroke-width:1.5;" width="125" x="133" y="230.875"/><text fill="#000000" font-family="sans-serif" font-size="12" lengthAdjust="spacing" textLength="105" x="143" y="252.0137">1.0.4.2 - Cambios</text><line style="stroke:#181818;stroke-width:1.5;" x1="123" x2="133" y1="296.8281" y2="296.8281"/><rect fill="#32CD32" height="33.9688" style="stroke:#181818;stroke-width:1.5;" width="210" x="133" y="279.8438"/><text fill="#000000" font-family="sans-serif" font-size="12" lengthAdjust="spacing" textLength="190" x="143" y="300.9824">1.0.4.A - Refinar documentaci&#243;n</text><line style="stroke:#181818;stroke-width:1.5;" x1="123" x2="133" y1="345.7969" y2="345.7969"/><rect fill="#32CD32" height="33.9688" style="stroke:#181818;stroke-width:1.5;" width="119" x="133" y="328.8125"/><text fill="#000000" font-family="sans-serif" font-size="12" lengthAdjust="spacing" textLength="99" x="143" y="349.9512">1.0.4.B - Informe</text><line style="stroke:#181818;stroke-width:1.5;" x1="123" x2="133" y1="394.7656" y2="394.7656"/><rect fill="#32CD32" height="33.9688" style="stroke:#181818;stroke-width:1.5;" width="156" x="133" y="377.7813"/><text fill="#000000" font-family="sans-serif" font-size="12" lengthAdjust="spacing" textLength="136" x="143" y="398.9199">1.0.4.C - Comunicaci&#243;n</text><line style="stroke:#181818;stroke-width:1.5;" x1="123" x2="133" y1="443.7344" y2="443.7344"/><rect fill="#32CD32" height="33.9688" style="stroke:#181818;stroke-width:1.5;" width="167" x="133" y="426.75"/><text fill="#000000" font-family="sans-serif" font-size="12" lengthAdjust="spacing" textLength="147" x="143" y="447.8887">1.0.4.D - Gesti&#243;n t&#233;cnica</text><line style="stroke:#181818;stroke-width:1.5;" x1="123" x2="123" y1="166.9063" y2="443.7344"/><line style="stroke:#181818;stroke-width:1.5;" x1="58.5" x2="58.5" y1="117.9375" y2="149.9219"/><line style="stroke:#181818;stroke-width:1.5;" x1="427.5" x2="427.5" y1="63.9688" y2="83.9688"/><rect fill="#FFA500" height="33.9688" style="stroke:#181818;stroke-width:1.5;" width="129" x="363" y="83.9688"/><text fill="#000000" font-family="sans-serif" font-size="12" lengthAdjust="spacing" textLength="109" x="373" y="105.1074">1.1 - Investigaci&#243;n</text><line style="stroke:#181818;stroke-width:1.5;" x1="427.5" x2="437.5" y1="149.9219" y2="149.9219"/><rect fill="#D8BFD8" height="33.9688" style="stroke:#181818;stroke-width:1.5;" width="434" x="437.5" y="132.9375"/><text fill="#000000" font-family="sans-serif" font-size="12" lengthAdjust="spacing" textLength="414" x="447.5" y="154.0762">1.1.2 - Lectura relacionada con la clasificaci&#243;n de im&#225;genes m&#233;dicas</text><line style="stroke:#181818;stroke-width:1.5;" x1="654.5" x2="664.5" y1="198.8906" y2="198.8906"/><rect fill="#32CD32" height="33.9688" style="stroke:#181818;stroke-width:1.5;" width="308" x="664.5" y="181.9063"/><text fill="#000000" font-family="sans-serif" font-size="12" lengthAdjust="spacing" textLength="288" x="674.5" y="203.0449">1.1.2.C - Clasificaci&#243;n de enfermedades renales</text><line style="stroke:#181818;stroke-width:1.5;" x1="654.5" x2="654.5" y1="166.9063" y2="198.8906"/><line style="stroke:#181818;stroke-width:1.5;" x1="427.5" x2="437.5" y1="247.8594" y2="247.8594"/><rect fill="#D8BFD8" height="33.9688" style="stroke:#181818;stroke-width:1.5;" width="184" x="437.5" y="230.875"/><text fill="#000000" font-family="sans-serif" font-size="12" lengthAdjust="spacing" textLength="164" x="447.5" y="252.0137">1.1.3 - Entrevistar expertos</text><line style="stroke:#181818;stroke-width:1.5;" x1="529.5" x2="539.5" y1="296.8281" y2="296.8281"/><rect fill="#32CD32" height="33.9688" style="stroke:#181818;stroke-width:1.5;" width="189" x="539.5" y="279.8438"/><text fill="#000000" font-family="sans-serif" font-size="12" lengthAdjust="spacing" textLength="169" x="549.5" y="300.9824">1.1.3.C - Profesional ur&#243;logo</text><line style="stroke:#181818;stroke-width:1.5;" x1="529.5" x2="529.5" y1="264.8438" y2="296.8281"/><line style="stroke:#181818;stroke-width:1.5;" x1="427.5" x2="437.5" y1="345.7969" y2="345.7969"/><rect fill="#D8BFD8" height="33.9688" style="stroke:#181818;stroke-width:1.5;" width="195" x="437.5" y="328.8125"/><text fill="#000000" font-family="sans-serif" font-size="12" lengthAdjust="spacing" textLength="175" x="447.5" y="349.9512">1.1.4 - Recopilaci&#243;n de datos</text><line style="stroke:#181818;stroke-width:1.5;" x1="535" x2="545" y1="394.7656" y2="394.7656"/><rect fill="#32CD32" height="33.9688" style="stroke:#181818;stroke-width:1.5;" width="260" x="545" y="377.7813"/><text fill="#000000" font-family="sans-serif" font-size="12" lengthAdjust="spacing" textLength="240" x="555" y="398.9199">1.1.4.C - Dataset enfermedades renales</text><line style="stroke:#181818;stroke-width:1.5;" x1="535" x2="535" y1="362.7813" y2="394.7656"/><line style="stroke:#181818;stroke-width:1.5;" x1="427.5" x2="427.5" y1="117.9375" y2="345.7969"/><line style="stroke:#181818;stroke-width:1.5;" x1="1061.5" x2="1061.5" y1="63.9688" y2="83.9688"/><rect fill="#FFA500" height="33.9688" style="stroke:#181818;stroke-width:1.5;" width="138" x="992.5" y="83.9688"/><text fill="#000000" font-family="sans-serif" font-size="12" lengthAdjust="spacing" textLength="118" x="1002.5" y="105.1074">1.2 - Modelos de IA</text><line style="stroke:#181818;stroke-width:1.5;" x1="1061.5" x2="1071.5" y1="149.9219" y2="149.9219"/><rect fill="#D8BFD8" height="33.9688" style="stroke:#181818;stroke-width:1.5;" width="233" x="1071.5" y="132.9375"/><text fill="#000000" font-family="sans-serif" font-size="12" lengthAdjust="spacing" textLength="213" x="1081.5" y="154.0762">1.2.1 - Procesamiento de im&#225;genes</text><line style="stroke:#181818;stroke-width:1.5;" x1="1188" x2="1198" y1="198.8906" y2="198.8906"/><rect fill="#87CEEB" height="33.9688" style="stroke:#181818;stroke-width:1.5;" width="207" x="1198" y="181.9063"/><text fill="#000000" font-family="sans-serif" font-size="12" lengthAdjust="spacing" textLength="187" x="1208" y="203.0449">1.2.1.2 - Refinamiento de datos</text><line style="stroke:#181818;stroke-width:1.5;" x1="1301.5" x2="1311.5" y1="247.8594" y2="247.8594"/><rect fill="#32CD32" height="33.9688" style="stroke:#181818;stroke-width:1.5;" width="154" x="1311.5" y="230.875"/><text fill="#000000" font-family="sans-serif" font-size="12" lengthAdjust="spacing" textLength="134" x="1321.5" y="252.0137">1.2.1.2.C - Ref. ri&#241;ones</text><line style="stroke:#181818;stroke-width:1.5;" x1="1301.5" x2="1301.5" y1="215.875" y2="247.8594"/><line style="stroke:#181818;stroke-width:1.5;" x1="1188" x2="1198" y1="296.8281" y2="296.8281"/><rect fill="#87CEEB" height="33.9688" style="stroke:#181818;stroke-width:1.5;" width="196" x="1198" y="279.8438"/><text fill="#000000" font-family="sans-serif" font-size="12" lengthAdjust="spacing" textLength="176" x="1208" y="300.9824">1.2.1.3 - Nivelaci&#243;n de clases</text><line style="stroke:#181818;stroke-width:1.5;" x1="1296" x2="1306" y1="345.7969" y2="345.7969"/><rect fill="#32CD32" height="33.9688" style="stroke:#181818;stroke-width:1.5;" width="153" x="1306" y="328.8125"/><text fill="#000000" font-family="sans-serif" font-size="12" lengthAdjust="spacing" textLength="133" x="1316" y="349.9512">1.2.1.3.C - Niv. ri&#241;ones</text><line style="stroke:#181818;stroke-width:1.5;" x1="1296" x2="1296" y1="313.8125" y2="345.7969"/><line style="stroke:#181818;stroke-width:1.5;" x1="1188" x2="1198" y1="394.7656" y2="394.7656"/><rect fill="#32CD32" height="33.9688" style="stroke:#181818;stroke-width:1.5;" width="189" x="1198" y="377.7813"/><text fill="#000000" font-family="sans-serif" font-size="12" lengthAdjust="spacing" textLength="169" x="1208" y="398.9199">1.2.1.C - Subir dataset MDER</text><line style="stroke:#181818;stroke-width:1.5;" x1="1188" x2="1188" y1="166.9063" y2="394.7656"/><line style="stroke:#181818;stroke-width:1.5;" x1="1061.5" x2="1071.5" y1="443.7344" y2="443.7344"/><rect fill="#D8BFD8" height="33.9688" style="stroke:#181818;stroke-width:1.5;" width="234" x="1071.5" y="426.75"/><text fill="#000000" font-family="sans-serif" font-size="12" lengthAdjust="spacing" textLength="214" x="1081.5" y="447.8887">1.2.2 - Implementaci&#243;n de modelos</text><line style="stroke:#181818;stroke-width:1.5;" x1="1188.5" x2="1198.5" y1="492.7031" y2="492.7031"/><rect fill="#87CEEB" height="33.9688" style="stroke:#181818;stroke-width:1.5;" width="213" x="1198.5" y="475.7188"/><text fill="#000000" font-family="sans-serif" font-size="12" lengthAdjust="spacing" textLength="193" x="1208.5" y="496.8574">1.2.2.2 - Desarrollo de modelos</text><line style="stroke:#181818;stroke-width:1.5;" x1="1305" x2="1315" y1="541.6719" y2="541.6719"/><rect fill="#32CD32" height="33.9688" style="stroke:#181818;stroke-width:1.5;" width="377" x="1315" y="524.6875"/><text fill="#000000" font-family="sans-serif" font-size="12" lengthAdjust="spacing" textLength="357" x="1325" y="545.8262">1.2.2.2.C - Modelo de Detecci&#243;n de Enfermedades Renales</text><line style="stroke:#181818;stroke-width:1.5;" x1="1305" x2="1315" y1="590.6406" y2="590.6406"/><rect fill="#32CD32" height="33.9688" style="stroke:#181818;stroke-width:1.5;" width="277" x="1315" y="573.6563"/><text fill="#000000" font-family="sans-serif" font-size="12" lengthAdjust="spacing" textLength="257" x="1325" y="594.7949">1.2.2.2.Z - Definici&#243;n de arquitectura MDER</text><line style="stroke:#181818;stroke-width:1.5;" x1="1305" x2="1305" y1="509.6875" y2="590.6406"/><line style="stroke:#181818;stroke-width:1.5;" x1="1188.5" x2="1188.5" y1="460.7188" y2="492.7031"/><line style="stroke:#181818;stroke-width:1.5;" x1="1061.5" x2="1071.5" y1="639.6094" y2="639.6094"/><rect fill="#D8BFD8" height="33.9688" style="stroke:#181818;stroke-width:1.5;" width="208" x="1071.5" y="622.625"/><text fill="#000000" font-family="sans-serif" font-size="12" lengthAdjust="spacing" textLength="188" x="1081.5" y="643.7637">1.2.3 - Despliegue de modelos</text><line style="stroke:#181818;stroke-width:1.5;" x1="1175.5" x2="1185.5" y1="688.5781" y2="688.5781"/><rect fill="#32CD32" height="33.9688" style="stroke:#181818;stroke-width:1.5;" width="413" x="1185.5" y="671.5938"/><text fill="#000000" font-family="sans-serif" font-size="12" lengthAdjust="spacing" textLength="393" x="1195.5" y="692.7324">1.2.3.C - Deploy Modelo de Detecci&#243;n de Enfermedades Renales</text><line style="stroke:#181818;stroke-width:1.5;" x1="1175.5" x2="1175.5" y1="656.5938" y2="688.5781"/><line style="stroke:#181818;stroke-width:1.5;" x1="1061.5" x2="1061.5" y1="117.9375" y2="639.6094"/><line style="stroke:#181818;stroke-width:1.5;" x1="1768" x2="1768" y1="63.9688" y2="83.9688"/><rect fill="#FFA500" height="33.9688" style="stroke:#181818;stroke-width:1.5;" width="112" x="1712" y="83.9688"/><text fill="#000000" font-family="sans-serif" font-size="12" lengthAdjust="spacing" textLength="92" x="1722" y="105.1074">1.3 - Validaci&#243;n</text><line style="stroke:#181818;stroke-width:1.5;" x1="1768" x2="1778" y1="149.9219" y2="149.9219"/><rect fill="#32CD32" height="33.9688" style="stroke:#181818;stroke-width:1.5;" width="217" x="1778" y="132.9375"/><text fill="#000000" font-family="sans-serif" font-size="12" lengthAdjust="spacing" textLength="197" x="1788" y="154.0762">1.3.C - Refinamiento de API MDER</text><line style="stroke:#181818;stroke-width:1.5;" x1="1768" x2="1768" y1="117.9375" y2="149.9219"/><line style="stroke:#181818;stroke-width:1.5;" x1="2091.5" x2="2091.5" y1="63.9688" y2="83.9688"/><rect fill="#FFA500" height="33.9688" style="stroke:#181818;stroke-width:1.5;" width="153" x="2015" y="83.9688"/><text fill="#000000" font-family="sans-serif" font-size="12" lengthAdjust="spacing" textLength="133" x="2025" y="105.1074">1.4 - Reentrenamiento</text><line style="stroke:#181818;stroke-width:1.5;" x1="2091.5" x2="2101.5" y1="149.9219" y2="149.9219"/><rect fill="#32CD32" height="33.9688" style="stroke:#181818;stroke-width:1.5;" width="279" x="2101.5" y="132.9375"/><text fill="#000000" font-family="sans-serif" font-size="12" lengthAdjust="spacing" textLength="259" x="2111.5" y="154.0762">1.4.1 - Investigaci&#243;n sobre bases de datos</text><line style="stroke:#181818;stroke-width:1.5;" x1="2091.5" x2="2101.5" y1="198.8906" y2="198.8906"/><rect fill="#32CD32" height="33.9688" style="stroke:#181818;stroke-width:1.5;" width="256" x="2101.5" y="181.9063"/><text fill="#000000" font-family="sans-serif" font-size="12" lengthAdjust="spacing" textLength="236" x="2111.5" y="203.0449">1.4.2 - Capacitaci&#243;n en bases de datos</text><line style="stroke:#181818;stroke-width:1.5;" x1="2091.5" x2="2101.5" y1="247.8594" y2="247.8594"/><rect fill="#32CD32" height="33.9688" style="stroke:#181818;stroke-width:1.5;" width="234" x="2101.5" y="230.875"/><text fill="#000000" font-family="sans-serif" font-size="12" lengthAdjust="spacing" textLength="214" x="2111.5" y="252.0137">1.4.3 - Integraci&#243;n de BBDD con API</text><line style="stroke:#181818;stroke-width:1.5;" x1="2091.5" x2="2101.5" y1="296.8281" y2="296.8281"/><rect fill="#32CD32" height="33.9688" style="stroke:#181818;stroke-width:1.5;" width="248" x="2101.5" y="279.8438"/><text fill="#000000" font-family="sans-serif" font-size="12" lengthAdjust="spacing" textLength="228" x="2111.5" y="300.9824">1.4.4 - Conexi&#243;n con equipo de datos</text><line style="stroke:#181818;stroke-width:1.5;" x1="2091.5" x2="2091.5" y1="117.9375" y2="296.8281"/><line style="stroke:#181818;stroke-width:1.5;" x1="2457" x2="2457" y1="63.9688" y2="83.9688"/><rect fill="#FFA500" height="33.9688" style="stroke:#181818;stroke-width:1.5;" width="113" x="2400.5" y="83.9688"/><text fill="#000000" font-family="sans-serif" font-size="12" lengthAdjust="spacing" textLength="93" x="2410.5" y="105.1074">1.A - Reuniones</text><line style="stroke:#181818;stroke-width:1.5;" x1="2457" x2="2467" y1="149.9219" y2="149.9219"/><rect fill="#32CD32" height="33.9688" style="stroke:#181818;stroke-width:1.5;" width="166" x="2467" y="132.9375"/><text fill="#000000" font-family="sans-serif" font-size="12" lengthAdjust="spacing" textLength="146" x="2477" y="154.0762">1.A.4 - Reuni&#243;n Formal 4</text><line style="stroke:#181818;stroke-width:1.5;" x1="2457" x2="2467" y1="198.8906" y2="198.8906"/><rect fill="#32CD32" height="33.9688" style="stroke:#181818;stroke-width:1.5;" width="195" x="2467" y="181.9063"/><text fill="#000000" font-family="sans-serif" font-size="12" lengthAdjust="spacing" textLength="175" x="2477" y="203.0449">1.A.13 - Clase de consultas 8</text><line style="stroke:#181818;stroke-width:1.5;" x1="2457" x2="2467" y1="247.8594" y2="247.8594"/><rect fill="#32CD32" height="33.9688" style="stroke:#181818;stroke-width:1.5;" width="195" x="2467" y="230.875"/><text fill="#000000" font-family="sans-serif" font-size="12" lengthAdjust="spacing" textLength="175" x="2477" y="252.0137">1.A.14 - Clase de consultas 9</text><line style="stroke:#181818;stroke-width:1.5;" x1="2457" x2="2467" y1="296.8281" y2="296.8281"/><rect fill="#32CD32" height="33.9688" style="stroke:#181818;stroke-width:1.5;" width="202" x="2467" y="279.8438"/><text fill="#000000" font-family="sans-serif" font-size="12" lengthAdjust="spacing" textLength="182" x="2477" y="300.9824">1.A.15 - Clase de consultas 10</text><line style="stroke:#181818;stroke-width:1.5;" x1="2457" x2="2467" y1="345.7969" y2="345.7969"/><rect fill="#32CD32" height="33.9688" style="stroke:#181818;stroke-width:1.5;" width="168" x="2467" y="328.8125"/><text fill="#000000" font-family="sans-serif" font-size="12" lengthAdjust="spacing" textLength="148" x="2477" y="349.9512">1.A.21 - Sprint 4 Planning</text><line style="stroke:#181818;stroke-width:1.5;" x1="2457" x2="2467" y1="394.7656" y2="394.7656"/><rect fill="#32CD32" height="33.9688" style="stroke:#181818;stroke-width:1.5;" width="141" x="2467" y="377.7813"/><text fill="#000000" font-family="sans-serif" font-size="12" lengthAdjust="spacing" textLength="121" x="2477" y="398.9199">1.A.23 - Daily Scrum</text><line style="stroke:#181818;stroke-width:1.5;" x1="2457" x2="2467" y1="443.7344" y2="443.7344"/><rect fill="#32CD32" height="33.9688" style="stroke:#181818;stroke-width:1.5;" width="166" x="2467" y="426.75"/><text fill="#000000" font-family="sans-serif" font-size="12" lengthAdjust="spacing" textLength="146" x="2477" y="447.8887">1.A.27 - Retrospective 4</text><line style="stroke:#181818;stroke-width:1.5;" x1="2457" x2="2457" y1="117.9375" y2="443.7344"/><line style="stroke:#181818;stroke-width:1.5;" x1="58.5" x2="2457" y1="63.9688" y2="63.9688"/><rect fill="#FFC0CB" height="33.9688" style="stroke:#181818;stroke-width:1.5;" width="69" x="1223.25" y="10"/><text fill="#000000" font-family="sans-serif" font-size="12" lengthAdjust="spacing" textLength="49" x="1233.25" y="31.1387">1 - BIOS</text><line style="stroke:#181818;stroke-width:1.5;" x1="1257.75" x2="1257.75" y1="43.9688" y2="63.9688"/><!--SRC=[dLRBSjis5DtpA-xIzenLIsBQnFLa8ecsgrIgDQRZHNSGUSLW308i22hHTFenNMRPoIVente1K38PKN6dsaW2phcFSn_akz8mRJujInXFx-BWgZGRWMy3EeWuopJBuSy0wDChk7poF-rdp9AdJAjAfXCbb8O5tRhBltxsSAMPpF0uuSxTjoXhhWIQuvI7Zxmq0g55MehgErxYfysO02r6fX7bSSgCvtXh8IsIn4zmdFFhH_R4FJuWnjKFjOh16VJXt2aBLrTMmRVsa4vx5tH-YwNXsw-IxhnS_jPTzq82n8Ncqa1802yE0SxsW9wrVS-np5H929TN6p0Wm8JbItuCCB8MSCKbqv2gfCfH6fRKCNNWnuIVofNIENO39jQZoYl9a-_PYPhPc-sNnE8RKAzHttbRMrosj_QjKdsNvGmJKsa66WKXbMGfWqH94FGbMCbN-tXI19vl_yvGOWdvzajADsM7m6JNPtD0Hxb24Y1bALdGA9d0iXsxvm-9VIsDnZMtGmRukK1jLBUpeNEsq6g5fOrVGAMtNuNAL9VfqDKjKGKNpt6bx9XnNvU86LQY-G_nWnTrhb8KP99iJqSTqWzSXIZc14kMS-eTrPRtC9P1NI_VTC-SNUnsd6i7ptWNFJ5weFds7oKFvDuXhUA_yJKsHB7LnsEMlUZ4UD6onSNLaciRgLDn7btV7vPcuBARveN0nYnH77cjPPSadXIHY5eh8LGRNmT-reIxU7nvB3X2WydUrNMpllS7zMqR-jrvfcBmFP_fFofkwe4wbkRGHrm8Zbc5BsNeXOwm46hpV-FsVMdzFZB1qyE5u9qDTztIwg_HOjgH2kmc2UsOxl47DiEkLLIgfKPOklPgT713PiVqExWWqguRKBxC6Zf_1ka9lDTdF8uYjzHiCeUKqArUYPyTtkAGwbYeBZS-Tx_zQLVNZVzDrgDQ709OYpUqzMajXGUkHxt-i5wKhX78TLa9cX9utOKDkx5lkh2lkh7zYmxmeDzyOYu4avBBh0leUfTniO4uqLNU1Vd9PMwqAWiQ15efhRo3ToXJUaKA0kl6V9ZFO8tQxctRxHU3OQy_EBdH7EuI0uCBw0ylmpUNhqBuy301UtyQdDmkPjH2bKueDte-QBwi31au3TwpDOFxIXfw4Ra4- -_aONuAyVNka0PbpRMITi44xn_d7WI_A1CNoZZmZ-7vc1k8KLDSy3WFQCGPQKVKHAKaooM5SdF-EfXHnIkMaIDwuPdG6utH6xgB_mK0]--></g></svg>