<?xml version="1.0" encoding="us-ascii" standalone="no"?><svg xmlns="http://www.w3.org/2000/svg" xmlns:xlink="http://www.w3.org/1999/xlink" contentStyleType="text/css" height="520px" preserveAspectRatio="none" style="width:883px;height:520px;background:#FFFFFF;" version="1.1" viewBox="0 0 883 520" width="883px" zoomAndPan="magnify"><defs/><g><line style="stroke:#181818;stroke-width:1.5;" x1="58.5" x2="58.5" y1="63.9688" y2="83.9688"/><rect fill="#FFA500" height="33.9688" style="stroke:#181818;stroke-width:1.5;" width="97" x="10" y="83.9688"/><text fill="#000000" font-family="sans-serif" font-size="12" lengthAdjust="spacing" textLength="77" x="20" y="105.1074">1.0 - Gesti&#243;n</text><line style="stroke:#181818;stroke-width:1.5;" x1="58.5" x2="68.5" y1="149.9219" y2="149.9219"/><rect fill="#D8BFD8" height="33.9688" style="stroke:#181818;stroke-width:1.5;" width="109" x="68.5" y="132.9375"/><text fill="#000000" font-family="sans-serif" font-size="12" lengthAdjust="spacing" textLength="89" x="78.5" y="154.0762">1.0.5 - Sprint 5</text><line style="stroke:#181818;stroke-width:1.5;" x1="123" x2="133" y1="198.8906" y2="198.8906"/><rect fill="#32CD32" height="33.9688" style="stroke:#181818;stroke-width:1.5;" width="120" x="133" y="181.9063"/><text fill="#000000" font-family="sans-serif" font-size="12" lengthAdjust="spacing" textLength="100" x="143" y="203.0449">1.0.5.1 - Riesgos</text><line style="stroke:#181818;stroke-width:1.5;" x1="123" x2="133" y1="247.8594" y2="247.8594"/><rect fill="#32CD32" height="33.9688" style="stroke:#181818;stroke-width:1.5;" width="125" x="133" y="230.875"/><text fill="#000000" font-family="sans-serif" font-size="12" lengthAdjust="spacing" textLength="105" x="143" y="252.0137">1.0.5.2 - Cambios</text><line style="stroke:#181818;stroke-width:1.5;" x1="123" x2="133" y1="296.8281" y2="296.8281"/><rect fill="#32CD32" height="33.9688" style="stroke:#181818;stroke-width:1.5;" width="210" x="133" y="279.8438"/><text fill="#000000" font-family="sans-serif" font-size="12" lengthAdjust="spacing" textLength="190" x="143" y="300.9824">1.0.5.A - Refinar documentaci&#243;n</text><line style="stroke:#181818;stroke-width:1.5;" x1="123" x2="133" y1="345.7969" y2="345.7969"/><rect fill="#32CD32" height="33.9688" style="stroke:#181818;stroke-width:1.5;" width="119" x="133" y="328.8125"/><text fill="#000000" font-family="sans-serif" font-size="12" lengthAdjust="spacing" textLength="99" x="143" y="349.9512">1.0.5.B - Informe</text><line style="stroke:#181818;stroke-width:1.5;" x1="123" x2="133" y1="394.7656" y2="394.7656"/><rect fill="#32CD32" height="33.9688" style="stroke:#181818;stroke-width:1.5;" width="156" x="133" y="377.7813"/><text fill="#000000" font-family="sans-serif" font-size="12" lengthAdjust="spacing" textLength="136" x="143" y="398.9199">1.0.5.C - Comunicaci&#243;n</text><line style="stroke:#181818;stroke-width:1.5;" x1="123" x2="133" y1="443.7344" y2="443.7344"/><rect fill="#32CD32" height="33.9688" style="stroke:#181818;stroke-width:1.5;" width="167" x="133" y="426.75"/><text fill="#000000" font-family="sans-serif" font-size="12" lengthAdjust="spacing" textLength="147" x="143" y="447.8887">1.0.5.D - Gesti&#243;n t&#233;cnica</text><line style="stroke:#181818;stroke-width:1.5;" x1="123" x2="123" y1="166.9063" y2="443.7344"/><line style="stroke:#181818;stroke-width:1.5;" x1="58.5" x2="68.5" y1="492.7031" y2="492.7031"/><rect fill="#F0E68C" height="33.9688" style="stroke:#181818;stroke-width:1.5;" width="167" x="68.5" y="475.7188"/><text fill="#000000" font-family="sans-serif" font-size="12" lengthAdjust="spacing" textLength="147" x="78.5" y="496.8574">FINN - Presentaci&#243;n Final</text><line style="stroke:#181818;stroke-width:1.5;" x1="58.5" x2="58.5" y1="117.9375" y2="492.7031"/><line style="stroke:#181818;stroke-width:1.5;" x1="419" x2="419" y1="63.9688" y2="83.9688"/><rect fill="#FFA500" height="33.9688" style="stroke:#181818;stroke-width:1.5;" width="112" x="363" y="83.9688"/><text fill="#000000" font-family="sans-serif" font-size="12" lengthAdjust="spacing" textLength="92" x="373" y="105.1074">1.3 - Validaci&#243;n</text><line style="stroke:#181818;stroke-width:1.5;" x1="419" x2="429" y1="149.9219" y2="149.9219"/><rect fill="#F0E68C" height="33.9688" style="stroke:#181818;stroke-width:1.5;" width="93" x="429" y="132.9375"/><text fill="#000000" font-family="sans-serif" font-size="12" lengthAdjust="spacing" textLength="73" x="439" y="154.0762">IV - Soporte</text><line style="stroke:#181818;stroke-width:1.5;" x1="419" x2="429" y1="198.8906" y2="198.8906"/><rect fill="#F0E68C" height="33.9688" style="stroke:#181818;stroke-width:1.5;" width="155" x="429" y="181.9063"/><text fill="#000000" font-family="sans-serif" font-size="12" lengthAdjust="spacing" textLength="135" x="439" y="203.0449">V - Monitoreo de Logs</text><line style="stroke:#181818;stroke-width:1.5;" x1="419" x2="419" y1="117.9375" y2="198.8906"/><line style="stroke:#181818;stroke-width:1.5;" x1="660.5" x2="660.5" y1="63.9688" y2="83.9688"/><rect fill="#FFA500" height="33.9688" style="stroke:#181818;stroke-width:1.5;" width="113" x="604" y="83.9688"/><text fill="#000000" font-family="sans-serif" font-size="12" lengthAdjust="spacing" textLength="93" x="614" y="105.1074">1.A - Reuniones</text><line style="stroke:#181818;stroke-width:1.5;" x1="660.5" x2="670.5" y1="149.9219" y2="149.9219"/><rect fill="#32CD32" height="33.9688" style="stroke:#181818;stroke-width:1.5;" width="166" x="670.5" y="132.9375"/><text fill="#000000" font-family="sans-serif" font-size="12" lengthAdjust="spacing" textLength="146" x="680.5" y="154.0762">1.A.5 - Reuni&#243;n Formal 5</text><line style="stroke:#181818;stroke-width:1.5;" x1="660.5" x2="670.5" y1="198.8906" y2="198.8906"/><rect fill="#32CD32" height="33.9688" style="stroke:#181818;stroke-width:1.5;" width="201" x="670.5" y="181.9063"/><text fill="#000000" font-family="sans-serif" font-size="12" lengthAdjust="spacing" textLength="181" x="680.5" y="203.0449">1.A.16 - Clase de consultas 11</text><line style="stroke:#181818;stroke-width:1.5;" x1="660.5" x2="670.5" y1="247.8594" y2="247.8594"/><rect fill="#32CD32" height="33.9688" style="stroke:#181818;stroke-width:1.5;" width="202" x="670.5" y="230.875"/><text fill="#000000" font-family="sans-serif" font-size="12" lengthAdjust="spacing" textLength="182" x="680.5" y="252.0137">1.A.17 - Clase de consultas 12</text><line style="stroke:#181818;stroke-width:1.5;" x1="660.5" x2="670.5" y1="296.8281" y2="296.8281"/><rect fill="#32CD32" height="33.9688" style="stroke:#181818;stroke-width:1.5;" width="169" x="670.5" y="279.8438"/><text fill="#000000" font-family="sans-serif" font-size="12" lengthAdjust="spacing" textLength="149" x="680.5" y="300.9824">1.A.22 - Sprint 5 Planning</text><line style="stroke:#181818;stroke-width:1.5;" x1="660.5" x2="670.5" y1="345.7969" y2="345.7969"/><rect fill="#32CD32" height="33.9688" style="stroke:#181818;stroke-width:1.5;" width="141" x="670.5" y="328.8125"/><text fill="#000000" font-family="sans-serif" font-size="12" lengthAdjust="spacing" textLength="121" x="680.5" y="349.9512">1.A.23 - Daily Scrum</text><line style="stroke:#181818;stroke-width:1.5;" x1="660.5" x2="670.5" y1="394.7656" y2="394.7656"/><rect fill="#32CD32" height="33.9688" style="stroke:#181818;stroke-width:1.5;" width="166" x="670.5" y="377.7813"/><text fill="#000000" font-family="sans-serif" font-size="12" lengthAdjust="spacing" textLength="146" x="680.5" y="398.9199">1.A.28 - Retrospective 5</text><line style="stroke:#181818;stroke-width:1.5;" x1="660.5" x2="660.5" y1="117.9375" y2="394.7656"/><line style="stroke:#181818;stroke-width:1.5;" x1="58.5" x2="660.5" y1="63.9688" y2="63.9688"/><rect fill="#FFC0CB" height="33.9688" style="stroke:#181818;stroke-width:1.5;" width="69" x="325" y="10"/><text fill="#000000" font-family="sans-serif" font-size="12" lengthAdjust="spacing" textLength="49" x="335" y="31.1387">1 - BIOS</text><line style="stroke:#181818;stroke-width:1.5;" x1="359.5" x2="359.5" y1="43.9688" y2="63.9688"/><!--SRC=[VPJFRjf04CRlVeevXaXGR21DAOfI851I22Wct1SpE2liNRIx9a9L7wZdFa9UhBFhbEB8Zaymy_lcpxTUtsh3b7bPQ-XFvg7Nq-QOu8r7WI5diM8f_FI0diQUYrt-qpvz5krY9JEn6SX4AbXGrYL_VSrngPY8iLemT_c2vC1bWgPQidpcsYG81T4woJxe4kwEVG8AYbWXYch9bASujaX19F05gZK_djcEvxn7YjwdDnUzI_2Xxfo5NiywU6E356qqAJv6RVZh7q6vtAuywzAD3W7XNd5Xe4D0RWu1boUWOMi_SjInr4IulOf0GC20fMjU1Nop5N3B1LEmaL6MeZ0iUfkfXEyJFn5RgL8i1mQseqmpmQEFwWpFjpUlloFBdw7EXT7auO6uXKBzVwmHpPeGIGToyh95r8ebV7DgURBJrfcih9LoBvN1az8cR7mc1JTIeOGDmbJ6-btjt27QHmhKxojJsfsJ0znqv0oDrobkxJZ_obgJC8ssKoI5pXB3DFX-6Vov0WvAu20uVrKM2HE2YxWCj4OD6K-E44OgIykGQxUEKLBlCJByW8LbRb5iwDFWURQBUPfDuO1AapSa3ff1g-475oF5OHuP29hWjxhjBzrE6vwM0x3vcdSnNan1oqn5j1hTPyNNcQ42DU-U7HWyPiBG1Uo2_NUndDKWlFiNX3jnu4eA-v9wzwjP3i5tQSAzD0w-QjVxt428YkQ2rSmRufQHTIIDv8PSwT8ee_grDwLJp5XCZUYY3-Wc6tMaNFWN]--></g></svg>